<svg width="2845" height="929" viewBox="0 0 2845 929" fill="none" xmlns="http://www.w3.org/2000/svg">
<rect width="924" height="929" fill="#1D262F"/>
<path d="M519.906 5V200.682L403.594 91.859L314.739 183.211L428.055 297.026H651.192V513.175L770.998 631.982L861.851 537.136L750.531 426.815H922.752V286.044H758.019L923.75 114.822V7.49595L835.393 5L653.189 200.682V5H519.906Z" fill="#47EBB4" stroke="#47EBB4"/>
<path d="M266.816 297.525V433.804L423.063 430.31L313.74 545.622L409.585 639.47L524.898 522.66V680.903H650.693V297.525H266.816Z" fill="#EBF4FF" stroke="#EBF4FF"/>
<path d="M218.899 712.347L2.75 817.676V925.002H703.612L895.301 720.334H740.552L525.402 893.053L387.625 808.191L477.479 799.705L564.338 720.334L218.899 712.347Z" fill="#EBF4FF" stroke="#EBF4FF"/>
<path fill-rule="evenodd" clip-rule="evenodd" d="M1054 97V343L1117.5 406.5H1172.5V447.5H1262V166L1198.5 97H1054ZM1171 177.5H1143.5V329H1171V177.5Z" fill="#EBF4FF"/>
<path d="M1296 97V347L1363 406.5H1505V97H1414.5V329H1388.5V97H1296Z" fill="#EBF4FF"/>
<path fill-rule="evenodd" clip-rule="evenodd" d="M1541 97H1683.5L1751.5 202V406.5H1662V279.5H1631V406.5H1541V97ZM1631 172.5V219H1657.5L1631 172.5Z" fill="#EBF4FF"/>
<path d="M1783.5 406.5V97H1929.5L1995.5 166V406.5H1905.5V177H1875.5V406.5H1783.5Z" fill="#EBF4FF"/>
<path d="M2027.5 97V305.5L2091.5 406.5H2237.5V219H2147V328.5H2118.5V192H2237.5V134.5H2118.5V97H2027.5Z" fill="#EBF4FF"/>
<path d="M2272.5 97V341L2339 406.5H2485V97H2392.5V328.5H2362V97H2272.5Z" fill="#EBF4FF"/>
<path d="M2517.5 97V406.5H2607V177H2636V406.5H2727.5V239H2753V406.5H2844V162.5H2727.5L2660 97H2517.5Z" fill="#EBF4FF"/>
<path d="M2272.5 594L2339 527.5H2485V837.5H2392.5V607H2362V837.5H2272.5V594Z" fill="#EBF4FF"/>
<path d="M2517.5 527.5H2607V561.5H2727.5V623.5H2607V758.5H2636V649H2727.5V837.5H2581L2517.5 737V527.5Z" fill="#EBF4FF"/>
<path d="M2027.5 527.5H2237.5V607H2118.5V649H2166V709H2118.5V758.5H2237.5V837.5H2027.5V527.5Z" fill="#EBF4FF"/>
<path fill-rule="evenodd" clip-rule="evenodd" d="M1783.5 527.5H1928L1995.5 632.5V775.5L1928 837.5H1783.5V527.5ZM1905.5 607H1875.5V758.5H1905.5V607Z" fill="#EBF4FF"/>
<path d="M1541 527.5H1631V758.5H1657.5V527.5H1751.5V837.5H1604.5L1541 775.5V527.5Z" fill="#EBF4FF"/>
<path d="M1296 527.5H1388.5V563.5H1505V625H1388.5V758.5H1414.5V649H1505V837.5H1363L1296 740.5V527.5Z" fill="#EBF4FF"/>
<path d="M1054 625L1117.5 527.5H1262V607H1143.5V649H1262V786.5L1219.5 837.5H1054V766H1184V709H1054V625Z" fill="#EBF4FF"/>
<path fill-rule="evenodd" clip-rule="evenodd" d="M1054 97V343L1117.5 406.5H1172.5V447.5H1262V166L1198.5 97H1054ZM1171 177.5H1143.5V329H1171V177.5Z" stroke="#EBF4FF"/>
<path d="M1296 97V347L1363 406.5H1505V97H1414.5V329H1388.5V97H1296Z" stroke="#EBF4FF"/>
<path fill-rule="evenodd" clip-rule="evenodd" d="M1541 97H1683.5L1751.5 202V406.5H1662V279.5H1631V406.5H1541V97ZM1631 172.5V219H1657.5L1631 172.5Z" stroke="#EBF4FF"/>
<path d="M1783.5 406.5V97H1929.5L1995.5 166V406.5H1905.5V177H1875.5V406.5H1783.5Z" stroke="#EBF4FF"/>
<path d="M2027.5 97V305.5L2091.5 406.5H2237.5V219H2147V328.5H2118.5V192H2237.5V134.5H2118.5V97H2027.5Z" stroke="#EBF4FF"/>
<path d="M2272.5 97V341L2339 406.5H2485V97H2392.5V328.5H2362V97H2272.5Z" stroke="#EBF4FF"/>
<path d="M2517.5 97V406.5H2607V177H2636V406.5H2727.5V239H2753V406.5H2844V162.5H2727.5L2660 97H2517.5Z" stroke="#EBF4FF"/>
<path d="M2272.5 594L2339 527.5H2485V837.5H2392.5V607H2362V837.5H2272.5V594Z" stroke="#EBF4FF"/>
<path d="M2517.5 527.5H2607V561.5H2727.5V623.5H2607V758.5H2636V649H2727.5V837.5H2581L2517.5 737V527.5Z" stroke="#EBF4FF"/>
<path d="M2027.5 527.5H2237.5V607H2118.5V649H2166V709H2118.5V758.5H2237.5V837.5H2027.5V527.5Z" stroke="#EBF4FF"/>
<path fill-rule="evenodd" clip-rule="evenodd" d="M1783.5 527.5H1928L1995.5 632.5V775.5L1928 837.5H1783.5V527.5ZM1905.5 607H1875.5V758.5H1905.5V607Z" stroke="#EBF4FF"/>
<path d="M1541 527.5H1631V758.5H1657.5V527.5H1751.5V837.5H1604.5L1541 775.5V527.5Z" stroke="#EBF4FF"/>
<path d="M1296 527.5H1388.5V563.5H1505V625H1388.5V758.5H1414.5V649H1505V837.5H1363L1296 740.5V527.5Z" stroke="#EBF4FF"/>
<path d="M1054 625L1117.5 527.5H1262V607H1143.5V649H1262V786.5L1219.5 837.5H1054V766H1184V709H1054V625Z" stroke="#EBF4FF"/>
</svg>
