<svg width="925" height="924" viewBox="0 0 925 924" fill="none" xmlns="http://www.w3.org/2000/svg">
<g clip-path="url(#clip0_1_13)">
<rect x="1" y="-5" width="2911" height="929" fill="#1D262F"/>
<path d="M520.906 0V195.682L404.594 86.859L315.739 178.211L429.055 292.026H652.192V508.175L771.998 626.982L862.851 532.136L751.531 421.815H923.752V281.044H759.019L924.75 109.822V2.49595L836.393 0L654.189 195.682V0H520.906Z" fill="#47EBB4" stroke="#47EBB4"/>
<path d="M267.816 292.525V428.804L424.063 425.31L314.74 540.622L410.585 634.47L525.898 517.66V675.903H651.693V292.525H267.816Z" fill="#EBF4FF" stroke="#EBF4FF"/>
<path d="M219.899 707.347L3.75 812.676V920.002H704.612L896.301 715.334H741.552L526.402 888.053L388.625 803.191L478.479 794.705L565.338 715.334L219.899 707.347Z" fill="#EBF4FF" stroke="#EBF4FF"/>
</g>
<defs>
<clipPath id="clip0_1_13">
<rect width="924" height="924" fill="white" transform="translate(0.75)"/>
</clipPath>
</defs>
</svg>
