<svg width="2614" height="742" viewBox="0 0 2614 742" fill="none" xmlns="http://www.w3.org/2000/svg">
<path fill-rule="evenodd" clip-rule="evenodd" d="M823 0.5V246.5L886.5 310H941.5V351H1031V69.5L967.5 0.5H823ZM940 81H912.5V232.5H940V81Z" fill="#EBF4FF"/>
<path d="M1065 0.5V250.5L1132 310H1274V0.5H1183.5V232.5H1157.5V0.5H1065Z" fill="#EBF4FF"/>
<path fill-rule="evenodd" clip-rule="evenodd" d="M1310 0.5H1452.5L1520.5 105.5V310H1431V183H1400V310H1310V0.5ZM1400 76V122.5H1426.5L1400 76Z" fill="#EBF4FF"/>
<path d="M1552.5 310V0.5H1698.5L1764.5 69.5V310H1674.5V80.5H1644.5V310H1552.5Z" fill="#EBF4FF"/>
<path d="M1796.5 0.5V209L1860.5 310H2006.5V122.5H1916V232H1887.5V95.5H2006.5V38H1887.5V0.5H1796.5Z" fill="#EBF4FF"/>
<path d="M2041.5 0.5V244.5L2108 310H2254V0.5H2161.5V232H2131V0.5H2041.5Z" fill="#EBF4FF"/>
<path d="M2286.5 0.5V310H2376V80.5H2405V310H2496.5V142.5H2522V310H2613V66H2496.5L2429 0.5H2286.5Z" fill="#EBF4FF"/>
<path d="M2041.5 497.5L2108 431H2254V741H2161.5V510.5H2131V741H2041.5V497.5Z" fill="#EBF4FF"/>
<path d="M2286.5 431H2376V465H2496.5V527H2376V662H2405V552.5H2496.5V741H2350L2286.5 640.5V431Z" fill="#EBF4FF"/>
<path d="M1796.5 431H2006.5V510.5H1887.5V552.5H1935V612.5H1887.5V662H2006.5V741H1796.5V431Z" fill="#EBF4FF"/>
<path fill-rule="evenodd" clip-rule="evenodd" d="M1552.5 431H1697L1764.5 536V679L1697 741H1552.5V431ZM1674.5 510.5H1644.5V662H1674.5V510.5Z" fill="#EBF4FF"/>
<path d="M1310 431H1400V662H1426.5V431H1520.5V741H1373.5L1310 679V431Z" fill="#EBF4FF"/>
<path d="M1065 431H1157.5V467H1274V528.5H1157.5V662H1183.5V552.5H1274V741H1132L1065 644V431Z" fill="#EBF4FF"/>
<path d="M823 528.5L886.5 431H1031V510.5H912.5V552.5H1031V690L988.5 741H823V669.5H953V612.5H823V528.5Z" fill="#EBF4FF"/>
<path fill-rule="evenodd" clip-rule="evenodd" d="M823 0.5V246.5L886.5 310H941.5V351H1031V69.5L967.5 0.5H823ZM940 81H912.5V232.5H940V81Z" stroke="#EBF4FF"/>
<path d="M1065 0.5V250.5L1132 310H1274V0.5H1183.5V232.5H1157.5V0.5H1065Z" stroke="#EBF4FF"/>
<path fill-rule="evenodd" clip-rule="evenodd" d="M1310 0.5H1452.5L1520.5 105.5V310H1431V183H1400V310H1310V0.5ZM1400 76V122.5H1426.5L1400 76Z" stroke="#EBF4FF"/>
<path d="M1552.5 310V0.5H1698.5L1764.5 69.5V310H1674.5V80.5H1644.5V310H1552.5Z" stroke="#EBF4FF"/>
<path d="M1796.5 0.5V209L1860.5 310H2006.5V122.5H1916V232H1887.5V95.5H2006.5V38H1887.5V0.5H1796.5Z" stroke="#EBF4FF"/>
<path d="M2041.5 0.5V244.5L2108 310H2254V0.5H2161.5V232H2131V0.5H2041.5Z" stroke="#EBF4FF"/>
<path d="M2286.5 0.5V310H2376V80.5H2405V310H2496.5V142.5H2522V310H2613V66H2496.5L2429 0.5H2286.5Z" stroke="#EBF4FF"/>
<path d="M2041.5 497.5L2108 431H2254V741H2161.5V510.5H2131V741H2041.5V497.5Z" stroke="#EBF4FF"/>
<path d="M2286.5 431H2376V465H2496.5V527H2376V662H2405V552.5H2496.5V741H2350L2286.5 640.5V431Z" stroke="#EBF4FF"/>
<path d="M1796.5 431H2006.5V510.5H1887.5V552.5H1935V612.5H1887.5V662H2006.5V741H1796.5V431Z" stroke="#EBF4FF"/>
<path fill-rule="evenodd" clip-rule="evenodd" d="M1552.5 431H1697L1764.5 536V679L1697 741H1552.5V431ZM1674.5 510.5H1644.5V662H1674.5V510.5Z" stroke="#EBF4FF"/>
<path d="M1310 431H1400V662H1426.5V431H1520.5V741H1373.5L1310 679V431Z" stroke="#EBF4FF"/>
<path d="M1065 431H1157.5V467H1274V528.5H1157.5V662H1183.5V552.5H1274V741H1132L1065 644V431Z" stroke="#EBF4FF"/>
<path d="M823 528.5L886.5 431H1031V510.5H912.5V552.5H1031V690L988.5 741H823V669.5H953V612.5H823V528.5Z" stroke="#EBF4FF"/>
<rect y="0.5" width="737.012" height="741" fill="#1D262F"/>
<path d="M174.601 568.691L2.19348 652.704V738.311H561.224L714.121 575.061H590.688L419.077 712.828L309.182 645.139L380.853 638.37L450.134 575.061L174.601 568.691Z" fill="#EBF4FF" stroke="#EBF4FF"/>
<path d="M404.152 0.5L404.32 159.267L308.502 72.5364L235.301 145.343L328.652 236.052H512.476V408.32L611.173 503.008L686.018 427.417L594.312 339.492H736.189L737.012 236.052H590.029L737.012 81.0762V0.500004L650.009 0.5L512.476 159.267L514.121 0.500004L404.152 0.5Z" fill="#47EBB4" stroke="#47EBB4"/>
<path d="M196.217 236.599V344.909L324.78 342.132L234.827 433.778L313.69 508.365L408.572 415.528V541.294H512.08V236.599H196.217Z" fill="#EBF4FF" stroke="#EBF4FF"/>
</svg>
