<svg width="925" height="930" viewBox="0 0 925 930" fill="none" xmlns="http://www.w3.org/2000/svg">
<rect y="0.5" width="924" height="929" fill="#1D262F"/>
<path d="M218.899 712.847L2.75 818.176V925.502H703.612L895.301 720.834H740.552L525.402 893.554L387.625 808.691L477.479 800.205L564.338 720.834L218.899 712.847Z" fill="#EBF4FF" stroke="#EBF4FF"/>
<path d="M506.69 0.5L506.901 199.548L386.772 90.8128L295 182.091L412.035 295.814H642.497V511.789L766.234 630.5L860.069 535.731L745.096 425.499H922.969L924 295.814H739.726L924 101.519V0.500004L814.924 0.5L642.497 199.548L644.559 0.500004L506.69 0.5Z" fill="#47EBB4" stroke="#47EBB4"/>
<path d="M246 296.5V432.289L407.181 428.807L294.406 543.706L393.277 637.216L512.231 520.826V678.5H642V296.5H246Z" fill="#EBF4FF" stroke="#EBF4FF"/>
</svg>
