<svg width="3949" height="748" viewBox="0 0 3949 748" fill="none" xmlns="http://www.w3.org/2000/svg">
<rect y="0.5" width="743" height="747" fill="#1D262F"/>
<path d="M175.878 573.5L2 658.197V744.5H565.799L720 579.923H595.515L422.44 718.81L311.607 650.57L383.889 643.746L453.762 579.923L175.878 573.5Z" fill="#EBF4FF" stroke="#EBF4FF"/>
<path d="M407.295 0.5L407.464 160.687L310.826 73.1803L237 146.637L331.149 238.158H516.544V411.966L616.085 507.5L691.57 431.233L599.08 342.523H742.17L743 238.158H594.76L743 81.7965V0.500004L655.253 0.5L516.544 160.687L518.203 0.500004L407.295 0.5Z" fill="#47EBB4" stroke="#47EBB4"/>
<path d="M198 238.5V347.629L327.84 344.831L236.993 437.171L316.64 512.322L412.464 418.783V545.5H517V238.5H198Z" fill="#EBF4FF" stroke="#EBF4FF"/>
<path fill-rule="evenodd" clip-rule="evenodd" d="M843 57.5V501.774L953.149 616.454H1048.55V690.5H1203.8V182.113L1093.66 57.5H843ZM1045.95 202.882H998.25V476.49H1045.95V202.882Z" fill="#EBF4FF"/>
<path d="M1262.78 57.5V508.998L1379 616.454H1625.32V57.5H1468.34V476.49H1423.24V57.5H1262.78Z" fill="#EBF4FF"/>
<path fill-rule="evenodd" clip-rule="evenodd" d="M1687.77 57.5H1934.95L2052.91 247.129V616.454H1897.66V387.093H1843.89V616.454H1687.77V57.5ZM1843.89 193.852V277.831H1889.85L1843.89 193.852Z" fill="#EBF4FF"/>
<path d="M2108.42 616.454V57.5H2361.67L2476.16 182.113V616.454H2320.04V201.979H2268V616.454H2108.42Z" fill="#EBF4FF"/>
<path d="M2531.67 57.5V434.049L2642.69 616.454H2895.94V277.831H2738.96V475.587H2689.52V229.069H2895.94V125.225H2689.52V57.5H2531.67Z" fill="#EBF4FF"/>
<path d="M2956.66 57.5V498.162L3072.01 616.454H3325.27V57.5H3164.81V475.587H3111.91V57.5H2956.66Z" fill="#EBF4FF"/>
<path d="M3381.64 57.5V616.454H3536.89V201.979H3587.2V616.454H3745.91V313.951H3790.15V616.454H3948V175.792H3745.91L3628.83 57.5H3381.64Z" fill="#EBF4FF"/>
<path fill-rule="evenodd" clip-rule="evenodd" d="M843 57.5V501.774L953.149 616.454H1048.55V690.5H1203.8V182.113L1093.66 57.5H843ZM1045.95 202.882H998.25V476.49H1045.95V202.882Z" stroke="#EBF4FF"/>
<path d="M1262.78 57.5V508.998L1379 616.454H1625.32V57.5H1468.34V476.49H1423.24V57.5H1262.78Z" stroke="#EBF4FF"/>
<path fill-rule="evenodd" clip-rule="evenodd" d="M1687.77 57.5H1934.95L2052.91 247.129V616.454H1897.66V387.093H1843.89V616.454H1687.77V57.5ZM1843.89 193.852V277.831H1889.85L1843.89 193.852Z" stroke="#EBF4FF"/>
<path d="M2108.42 616.454V57.5H2361.67L2476.16 182.113V616.454H2320.04V201.979H2268V616.454H2108.42Z" stroke="#EBF4FF"/>
<path d="M2531.67 57.5V434.049L2642.69 616.454H2895.94V277.831H2738.96V475.587H2689.52V229.069H2895.94V125.225H2689.52V57.5H2531.67Z" stroke="#EBF4FF"/>
<path d="M2956.66 57.5V498.162L3072.01 616.454H3325.27V57.5H3164.81V475.587H3111.91V57.5H2956.66Z" stroke="#EBF4FF"/>
<path d="M3381.64 57.5V616.454H3536.89V201.979H3587.2V616.454H3745.91V313.951H3790.15V616.454H3948V175.792H3745.91L3628.83 57.5H3381.64Z" stroke="#EBF4FF"/>
</svg>
