<svg width="3942" height="739" viewBox="0 0 3942 739" fill="none" xmlns="http://www.w3.org/2000/svg">
<path fill-rule="evenodd" clip-rule="evenodd" d="M837 58V502.274L947.149 616.954H1042.55V691H1197.8V182.613L1087.66 58H837ZM1039.95 203.382H992.25V476.99H1039.95V203.382Z" fill="white"/>
<path d="M1256.78 58V509.498L1373 616.954H1619.32V58H1462.34V476.99H1417.24V58H1256.78Z" fill="white"/>
<path fill-rule="evenodd" clip-rule="evenodd" d="M1681.77 58H1928.95L2046.91 247.629V616.954H1891.66V387.593H1837.89V616.954H1681.77V58ZM1837.89 194.352V278.331H1883.85L1837.89 194.352Z" fill="white"/>
<path d="M2102.42 616.954V58H2355.67L2470.16 182.613V616.954H2314.04V202.479H2262V616.954H2102.42Z" fill="white"/>
<path d="M2525.67 58V434.549L2636.69 616.954H2889.94V278.331H2732.96V476.087H2683.52V229.569H2889.94V125.725H2683.52V58H2525.67Z" fill="white"/>
<path d="M2950.66 58V498.662L3066.01 616.954H3319.27V58H3158.81V476.087H3105.91V58H2950.66Z" fill="white"/>
<path d="M3375.64 58V616.954H3530.89V202.479H3581.2V616.954H3739.91V314.451H3784.15V616.954H3942V176.292H3739.91L3622.83 58H3375.64Z" fill="white"/>
<path d="M172.407 569.191L0 653.204V738.811H559.03L711.927 575.561H588.495L416.884 713.328L306.989 645.639L378.659 638.87L447.941 575.561L172.407 569.191Z" fill="white"/>
<path d="M403.959 0L404.127 158.767L308.308 72.0364L235.108 144.843L328.459 235.552H512.282V407.82L610.979 502.508L685.825 426.917L594.119 338.992H735.996L736.818 235.552H589.835L736.818 80.5762V3.53688e-06L649.816 0L512.282 158.767L513.927 3.53688e-06L403.959 0Z" fill="white"/>
<path d="M180.807 252V360.31L309.37 357.533L219.417 449.179L298.279 523.766L393.161 430.929V556.695H496.669V252H180.807Z" fill="white"/>
</svg>
