<svg width="921" height="924" viewBox="0 0 921 924" fill="none" xmlns="http://www.w3.org/2000/svg">
<path d="M215.504 711.471L0 816.485V923.491H698.77L889.887 719.434H735.6L521.091 891.638L383.726 807.029L473.312 798.568L559.912 719.434L215.504 711.471Z" fill="white"/>
<path d="M504.936 0L505.146 198.454L385.376 90.0432L293.878 181.049L410.564 294.433H640.337V509.763L763.705 628.119L857.26 533.633L742.63 423.73H919.972L921 294.433H737.276L921 100.718V4.42099e-06L812.249 0L640.337 198.454L642.393 4.42099e-06L504.936 0Z" fill="white"/>
<path d="M226.002 314.992V450.376L386.702 446.904L274.264 561.46L372.84 654.691L491.439 538.648V695.852H620.82V314.992H226.002Z" fill="white"/>
</svg>
