<svg width="2611" height="742" viewBox="0 0 2611 742" fill="none" xmlns="http://www.w3.org/2000/svg">
<path fill-rule="evenodd" clip-rule="evenodd" d="M820.807 1V247L884.307 310.5H939.307V351.5H1028.81V70L965.307 1H820.807ZM937.807 81.5H910.307V233H937.807V81.5Z" fill="white"/>
<path d="M1062.81 1V251L1129.81 310.5H1271.81V1H1181.31V233H1155.31V1H1062.81Z" fill="white"/>
<path fill-rule="evenodd" clip-rule="evenodd" d="M1307.81 1H1450.31L1518.31 106V310.5H1428.81V183.5H1397.81V310.5H1307.81V1ZM1397.81 76.5V123H1424.31L1397.81 76.5Z" fill="white"/>
<path d="M1550.31 310.5V1H1696.31L1762.31 70V310.5H1672.31V81H1642.31V310.5H1550.31Z" fill="white"/>
<path d="M1794.31 1V209.5L1858.31 310.5H2004.31V123H1913.81V232.5H1885.31V96H2004.31V38.5H1885.31V1H1794.31Z" fill="white"/>
<path d="M2039.31 1V245L2105.81 310.5H2251.81V1H2159.31V232.5H2128.81V1H2039.31Z" fill="white"/>
<path d="M2284.31 1V310.5H2373.81V81H2402.81V310.5H2494.31V143H2519.81V310.5H2610.81V66.5H2494.31L2426.81 1H2284.31Z" fill="white"/>
<path d="M2039.31 498L2105.81 431.5H2251.81V741.5H2159.31V511H2128.81V741.5H2039.31V498Z" fill="white"/>
<path d="M2284.31 431.5H2373.81V465.5H2494.31V527.5H2373.81V662.5H2402.81V553H2494.31V741.5H2347.81L2284.31 641V431.5Z" fill="white"/>
<path d="M1794.31 431.5H2004.31V511H1885.31V553H1932.81V613H1885.31V662.5H2004.31V741.5H1794.31V431.5Z" fill="white"/>
<path fill-rule="evenodd" clip-rule="evenodd" d="M1550.31 431.5H1694.81L1762.31 536.5V679.5L1694.81 741.5H1550.31V431.5ZM1672.31 511H1642.31V662.5H1672.31V511Z" fill="white"/>
<path d="M1307.81 431.5H1397.81V662.5H1424.31V431.5H1518.31V741.5H1371.31L1307.81 679.5V431.5Z" fill="white"/>
<path d="M1062.81 431.5H1155.31V467.5H1271.81V529H1155.31V662.5H1181.31V553H1271.81V741.5H1129.81L1062.81 644.5V431.5Z" fill="white"/>
<path d="M820.807 529L884.307 431.5H1028.81V511H910.307V553H1028.81V690.5L986.307 741.5H820.807V670H950.807V613H820.807V529Z" fill="white"/>
<path d="M172.407 569.191L0 653.204V738.811H559.03L711.927 575.561H588.495L416.884 713.328L306.989 645.639L378.659 638.87L447.941 575.561L172.407 569.191Z" fill="white"/>
<path d="M403.959 0L404.127 158.767L308.308 72.0364L235.108 144.843L328.459 235.552H512.282V407.82L610.979 502.508L685.825 426.917L594.119 338.992H735.996L736.818 235.552H589.835L736.818 80.5762V3.53688e-06L649.816 0L512.282 158.767L513.927 3.53688e-06L403.959 0Z" fill="white"/>
<path d="M180.807 252V360.31L309.369 357.533L219.416 449.179L298.279 523.766L393.161 430.929V556.695H496.669V252H180.807Z" fill="white"/>
</svg>
